<?xml version="1.0" encoding="UTF-8" standalone="no"?><!DOCTYPE svg PUBLIC "-//W3C//DTD SVG 1.1//EN" "http://www.w3.org/Graphics/SVG/1.1/DTD/svg11.dtd"><!-- Generated by graphviz version 2.40.1 (20161225.0304)
 --><!-- Title: g Pages: 1 --><svg xmlns="http://www.w3.org/2000/svg" xmlns:xlink="http://www.w3.org/1999/xlink" width="912pt" height="438pt" viewBox="0.00 0.00 911.99 438.00">
<g id="graph0" class="graph" transform="scale(1 1) rotate(0) translate(4 434)">
<title>g</title>
<polygon fill="#ffffff" stroke="transparent" points="-4,4 -4,-434 907.9906,-434 907.9906,4 -4,4"/>
<g id="clust1" class="cluster">
<title>cluster_0</title>
<polygon fill="none" stroke="#000000" points="270,-8 270,-84.8 574,-84.8 574,-8 270,-8"/>
<text text-anchor="middle" x="422" y="-68.2" font-family="Times,serif" font-size="14.00" fill="#000000">Interner</text>
</g>
<g id="clust2" class="cluster">
<title>cluster_1</title>
<polygon fill="none" stroke="#000000" points="8,-8 8,-84.8 262,-84.8 262,-8 8,-8"/>
<text text-anchor="middle" x="135" y="-68.2" font-family="Times,serif" font-size="14.00" fill="#000000">Inputs</text>
</g>
<!-- get_line -->
<g id="node1" class="node">
<title>get_line</title>
<ellipse fill="none" stroke="#000000" cx="178" cy="-145.6" rx="42.2932" ry="18"/>
<text text-anchor="middle" x="178" y="-141.4" font-family="Times,serif" font-size="14.00" fill="#000000">get_line</text>
</g>
<!-- source_text -->
<g id="node2" class="node">
<title>source_text</title>
<ellipse fill="none" stroke="#000000" cx="198" cy="-34" rx="55.5966" ry="18"/>
<text text-anchor="middle" x="198" y="-29.8" font-family="Times,serif" font-size="14.00" fill="#000000">source_text</text>
</g>
<!-- get_line&#45;&gt;source_text -->
<g id="edge1" class="edge">
<title>get_line-&gt;source_text</title>
<path fill="none" stroke="#000000" d="M181.3026,-127.1715C184.4771,-109.4577 189.3181,-82.4448 192.9717,-62.0581"/>
<polygon fill="#000000" stroke="#000000" points="196.4399,-62.5462 194.7589,-52.0856 189.5497,-61.3113 196.4399,-62.5462"/>
</g>
<!-- parse_source -->
<g id="node3" class="node">
<title>parse_source</title>
<ellipse fill="none" stroke="#000000" cx="451" cy="-145.6" rx="61.3761" ry="18"/>
<text text-anchor="middle" x="451" y="-141.4" font-family="Times,serif" font-size="14.00" fill="#000000">parse_source</text>
</g>
<!-- parse_source&#45;&gt;source_text -->
<g id="edge2" class="edge">
<title>parse_source-&gt;source_text</title>
<path fill="none" stroke="#000000" d="M402.9245,-134.3903C364.5463,-124.3743 310.0916,-107.7306 266,-84.8 251.5535,-77.2868 236.909,-66.7949 224.9291,-57.2955"/>
<polygon fill="#000000" stroke="#000000" points="227.0631,-54.5197 217.0962,-50.9264 222.6469,-59.9509 227.0631,-54.5197"/>
</g>
<!-- form_data -->
<g id="node4" class="node">
<title>form_data</title>
<ellipse fill="none" stroke="#000000" cx="515" cy="-34" rx="50.9425" ry="18"/>
<text text-anchor="middle" x="515" y="-29.8" font-family="Times,serif" font-size="14.00" fill="#000000">form_data</text>
</g>
<!-- parse_source&#45;&gt;form_data -->
<g id="edge3" class="edge">
<title>parse_source-&gt;form_data</title>
<path fill="none" stroke="#000000" d="M461.2827,-127.6695C471.6396,-109.6097 487.7432,-81.5291 499.6194,-60.8198"/>
<polygon fill="#000000" stroke="#000000" points="502.8042,-62.3019 504.7428,-51.886 496.7318,-58.8196 502.8042,-62.3019"/>
<text text-anchor="middle" x="486.8303" y="-97" font-family="Times,serif" font-size="14.00" fill="#000000">*I</text>
</g>
<!-- forms -->
<g id="node5" class="node">
<title>forms</title>
<ellipse fill="none" stroke="#000000" cx="312" cy="-34" rx="33.6247" ry="18"/>
<text text-anchor="middle" x="312" y="-29.8" font-family="Times,serif" font-size="14.00" fill="#000000">forms</text>
</g>
<!-- parse_source&#45;&gt;forms -->
<g id="edge4" class="edge">
<title>parse_source-&gt;forms</title>
<path fill="none" stroke="#000000" d="M441.5391,-127.6902C434.2752,-115.799 423.1051,-100.9315 409,-92.8 387.9807,-80.6825 376.2014,-96.5958 355,-84.8 344.3317,-78.8645 335.1449,-69.1752 328.0339,-59.8417"/>
<polygon fill="#000000" stroke="#000000" points="330.7466,-57.6166 322.1041,-51.4881 325.0385,-61.6685 330.7466,-57.6166"/>
<text text-anchor="middle" x="433.8303" y="-97" font-family="Times,serif" font-size="14.00" fill="#000000">*I</text>
</g>
<!-- parse_subset -->
<g id="node6" class="node">
<title>parse_subset</title>
<ellipse fill="none" stroke="#000000" cx="620" cy="-234.4" rx="60.2518" ry="18"/>
<text text-anchor="middle" x="620" y="-230.2" font-family="Times,serif" font-size="14.00" fill="#000000">parse_subset</text>
</g>
<!-- parse_subset&#45;&gt;parse_source -->
<g id="edge5" class="edge">
<title>parse_subset-&gt;parse_source</title>
<path fill="none" stroke="#000000" d="M590.1752,-218.7288C562.3516,-204.109 520.6681,-182.2067 490.1724,-166.1829"/>
<polygon fill="#000000" stroke="#000000" points="491.5755,-162.9664 481.0951,-161.4133 488.3194,-169.1631 491.5755,-162.9664"/>
<text text-anchor="middle" x="553.5" y="-185.8" font-family="Times,serif" font-size="14.00" fill="#000000">*</text>
</g>
<!-- forms_in_source -->
<g id="node7" class="node">
<title>forms_in_source</title>
<ellipse fill="none" stroke="#000000" cx="466" cy="-234.4" rx="75.8643" ry="18"/>
<text text-anchor="middle" x="466" y="-230.2" font-family="Times,serif" font-size="14.00" fill="#000000">forms_in_source</text>
</g>
<!-- forms_in_source&#45;&gt;parse_source -->
<g id="edge6" class="edge">
<title>forms_in_source-&gt;parse_source</title>
<path fill="none" stroke="#000000" d="M462.892,-216.0006C460.8269,-203.775 458.0758,-187.4887 455.7399,-173.6599"/>
<polygon fill="#000000" stroke="#000000" points="459.1695,-172.9493 454.0527,-163.672 452.2673,-174.1153 459.1695,-172.9493"/>
</g>
<!-- forms_in_source&#45;&gt;form_data -->
<g id="edge7" class="edge">
<title>forms_in_source-&gt;form_data</title>
<path fill="none" stroke="#000000" d="M510.4126,-219.7312C519.7803,-214.5038 528.4879,-207.555 534,-198.4 559.6281,-155.8341 541.9624,-95.7581 527.7991,-61.2515"/>
<polygon fill="#000000" stroke="#000000" points="530.9124,-59.6309 523.7522,-51.8218 524.4797,-62.3916 530.9124,-59.6309"/>
<text text-anchor="middle" x="554.7763" y="-141.4" font-family="Times,serif" font-size="14.00" fill="#000000">*L</text>
</g>
<!-- forms_in_subset -->
<g id="node8" class="node">
<title>forms_in_subset</title>
<ellipse fill="none" stroke="#000000" cx="565" cy="-323.2" rx="74.74" ry="18"/>
<text text-anchor="middle" x="565" y="-319" font-family="Times,serif" font-size="14.00" fill="#000000">forms_in_subset</text>
</g>
<!-- forms_in_subset&#45;&gt;forms_in_source -->
<g id="edge8" class="edge">
<title>forms_in_subset-&gt;forms_in_source</title>
<path fill="none" stroke="#000000" d="M545.4408,-305.656C530.5254,-292.2773 509.8006,-273.6878 493.2591,-258.8506"/>
<polygon fill="#000000" stroke="#000000" points="495.2998,-255.9793 485.5186,-251.9076 490.6257,-261.1902 495.2998,-255.9793"/>
<text text-anchor="middle" x="527.5" y="-274.6" font-family="Times,serif" font-size="14.00" fill="#000000">*</text>
</g>
<!-- lemmas_in_source -->
<g id="node9" class="node">
<title>lemmas_in_source</title>
<ellipse fill="none" stroke="#000000" cx="136" cy="-323.2" rx="83.3867" ry="18"/>
<text text-anchor="middle" x="136" y="-319" font-family="Times,serif" font-size="14.00" fill="#000000">lemmas_in_source</text>
</g>
<!-- lemmas_in_source&#45;&gt;forms -->
<g id="edge10" class="edge">
<title>lemmas_in_source-&gt;forms</title>
<path fill="none" stroke="#000000" d="M147.0096,-305.1092C177.1546,-255.5755 261.1204,-117.6044 296.2405,-59.8957"/>
<polygon fill="#000000" stroke="#000000" points="299.2331,-61.7108 301.442,-51.3487 293.2534,-58.0716 299.2331,-61.7108"/>
<text text-anchor="middle" x="228.7763" y="-185.8" font-family="Times,serif" font-size="14.00" fill="#000000">*L</text>
</g>
<!-- lemmas_in_source&#45;&gt;forms_in_source -->
<g id="edge9" class="edge">
<title>lemmas_in_source-&gt;forms_in_source</title>
<path fill="none" stroke="#000000" d="M197.8477,-311.0248C228.7024,-304.5961 266.4953,-296.1854 300,-287.2 338.2514,-276.9416 380.8059,-263.3621 413.2519,-252.5436"/>
<polygon fill="#000000" stroke="#000000" points="414.6123,-255.7791 422.9809,-249.2815 412.3869,-249.1422 414.6123,-255.7791"/>
</g>
<!-- lemmas -->
<g id="node10" class="node">
<title>lemmas</title>
<ellipse fill="none" stroke="#000000" cx="405" cy="-34" rx="41.1471" ry="18"/>
<text text-anchor="middle" x="405" y="-29.8" font-family="Times,serif" font-size="14.00" fill="#000000">lemmas</text>
</g>
<!-- lemmas_in_source&#45;&gt;lemmas -->
<g id="edge11" class="edge">
<title>lemmas_in_source-&gt;lemmas</title>
<path fill="none" stroke="#000000" d="M156.3119,-305.6481C162.7379,-299.9037 169.7825,-293.4024 176,-287.2 256.3569,-207.0388 344.6362,-105.1205 384.0186,-58.853"/>
<polygon fill="#000000" stroke="#000000" points="386.7655,-61.0255 390.5712,-51.1378 381.43,-56.4941 386.7655,-61.0255"/>
<text text-anchor="middle" x="280.8303" y="-185.8" font-family="Times,serif" font-size="14.00" fill="#000000">*I</text>
</g>
<!-- lemmatizer -->
<g id="node11" class="node">
<title>lemmatizer</title>
<ellipse fill="none" stroke="#000000" cx="70" cy="-34" rx="54.4469" ry="18"/>
<text text-anchor="middle" x="70" y="-29.8" font-family="Times,serif" font-size="14.00" fill="#000000">lemmatizer</text>
</g>
<!-- lemmas_in_source&#45;&gt;lemmatizer -->
<g id="edge12" class="edge">
<title>lemmas_in_source-&gt;lemmatizer</title>
<path fill="none" stroke="#000000" d="M129.7331,-305.2089C121.5276,-281.1281 107.1183,-236.9723 98,-198.4 86.8694,-151.3151 78.3392,-95.649 73.7573,-62.6682"/>
<polygon fill="#000000" stroke="#000000" points="77.176,-61.8336 72.3568,-52.3983 70.2402,-62.7795 77.176,-61.8336"/>
<text text-anchor="middle" x="101.5" y="-185.8" font-family="Times,serif" font-size="14.00" fill="#000000">*</text>
</g>
<!-- lemmas_in_subset -->
<g id="node12" class="node">
<title>lemmas_in_subset</title>
<ellipse fill="none" stroke="#000000" cx="124" cy="-412" rx="82.2623" ry="18"/>
<text text-anchor="middle" x="124" y="-407.8" font-family="Times,serif" font-size="14.00" fill="#000000">lemmas_in_subset</text>
</g>
<!-- lemmas_in_subset&#45;&gt;lemmas_in_source -->
<g id="edge13" class="edge">
<title>lemmas_in_subset-&gt;lemmas_in_source</title>
<path fill="none" stroke="#000000" d="M126.4864,-393.6006C128.1385,-381.375 130.3394,-365.0887 132.2081,-351.2599"/>
<polygon fill="#000000" stroke="#000000" points="135.687,-351.6507 133.5578,-341.272 128.7501,-350.7132 135.687,-351.6507"/>
<text text-anchor="middle" x="134.5" y="-363.4" font-family="Times,serif" font-size="14.00" fill="#000000">*</text>
</g>
<!-- form_occurrences_subset -->
<g id="node13" class="node">
<title>form_occurrences_subset</title>
<ellipse fill="none" stroke="#000000" cx="768" cy="-323.2" rx="109.9131" ry="18"/>
<text text-anchor="middle" x="768" y="-319" font-family="Times,serif" font-size="14.00" fill="#000000">form_occurrences_subset</text>
</g>
<!-- form_occurrences_subset&#45;&gt;form_data -->
<g id="edge15" class="edge">
<title>form_occurrences_subset-&gt;form_data</title>
<path fill="none" stroke="#000000" d="M764.8321,-305.1682C757.3668,-267.577 735.3668,-179.9865 685,-127.6 650.2747,-91.4823 598.5274,-65.7412 561.2522,-50.509"/>
<polygon fill="#000000" stroke="#000000" points="562.2139,-47.1247 551.6285,-46.6773 559.6245,-53.6282 562.2139,-47.1247"/>
<text text-anchor="middle" x="737.7763" y="-185.8" font-family="Times,serif" font-size="14.00" fill="#000000">*L</text>
</g>
<!-- form_occurrences_subset&#45;&gt;parse_subset -->
<g id="edge14" class="edge">
<title>form_occurrences_subset-&gt;parse_subset</title>
<path fill="none" stroke="#000000" d="M738.76,-305.656C714.9472,-291.3683 681.2293,-271.1376 655.8017,-255.881"/>
<polygon fill="#000000" stroke="#000000" points="657.5589,-252.8537 647.1832,-250.7099 653.9574,-258.8561 657.5589,-252.8537"/>
</g>
<!-- lemma_occurrences_subset -->
<g id="node14" class="node">
<title>lemma_occurrences_subset</title>
<ellipse fill="none" stroke="#000000" cx="355" cy="-323.2" rx="117.4354" ry="18"/>
<text text-anchor="middle" x="355" y="-319" font-family="Times,serif" font-size="14.00" fill="#000000">lemma_occurrences_subset</text>
</g>
<!-- lemma_occurrences_subset&#45;&gt;form_data -->
<g id="edge17" class="edge">
<title>lemma_occurrences_subset-&gt;form_data</title>
<path fill="none" stroke="#000000" d="M440.339,-310.8121C534.0585,-296.3336 673.4339,-271.8761 689,-252.4 747.2484,-179.5202 619.5877,-92.7911 552.6147,-54.2216"/>
<polygon fill="#000000" stroke="#000000" points="554.0181,-50.9939 543.5929,-49.1053 550.565,-57.0829 554.0181,-50.9939"/>
<text text-anchor="middle" x="708.7763" y="-185.8" font-family="Times,serif" font-size="14.00" fill="#000000">*L</text>
</g>
<!-- lemma_occurrences_subset&#45;&gt;forms -->
<g id="edge20" class="edge">
<title>lemma_occurrences_subset-&gt;forms</title>
<path fill="none" stroke="#000000" d="M350.4768,-305.1298C344.58,-280.9614 334.316,-236.7088 328.3394,-198.4 320.9511,-151.0421 316.2461,-95.4594 313.8695,-62.5695"/>
<polygon fill="#000000" stroke="#000000" points="317.3426,-62.0611 313.1523,-52.3301 310.3597,-62.5502 317.3426,-62.0611"/>
<text text-anchor="middle" x="333.8303" y="-185.8" font-family="Times,serif" font-size="14.00" fill="#000000">*I</text>
</g>
<!-- lemma_occurrences_subset&#45;&gt;parse_subset -->
<g id="edge16" class="edge">
<title>lemma_occurrences_subset-&gt;parse_subset</title>
<path fill="none" stroke="#000000" d="M403.9139,-306.8092C451.2042,-290.9625 522.5044,-267.0702 570.1188,-251.1149"/>
<polygon fill="#000000" stroke="#000000" points="571.2372,-254.4315 579.6069,-247.9355 569.013,-247.7942 571.2372,-254.4315"/>
</g>
<!-- lemma_occurrences_subset&#45;&gt;lemmas -->
<g id="edge18" class="edge">
<title>lemma_occurrences_subset-&gt;lemmas</title>
<path fill="none" stroke="#000000" d="M356.6879,-305.0157C360.0696,-270.3151 368.4437,-192.3383 381,-127.6 385.319,-105.3318 391.771,-80.4747 396.8979,-61.9758"/>
<polygon fill="#000000" stroke="#000000" points="400.3236,-62.7227 399.6624,-52.1485 393.5851,-60.827 400.3236,-62.7227"/>
<text text-anchor="middle" x="375.2763" y="-185.8" font-family="Times,serif" font-size="14.00" fill="#000000">L</text>
</g>
<!-- lemma_occurrences_subset&#45;&gt;lemmatizer -->
<g id="edge19" class="edge">
<title>lemma_occurrences_subset-&gt;lemmatizer</title>
<path fill="none" stroke="#000000" d="M318.7631,-305.8713C269.4785,-280.698 181.2539,-229.7102 127,-163.6 120.1229,-155.22 95.6557,-96.8448 81.1076,-61.359"/>
<polygon fill="#000000" stroke="#000000" points="84.313,-59.9506 77.2901,-52.0178 77.8332,-62.5987 84.313,-59.9506"/>
</g>
<!-- count_lemma_occurrences_subset -->
<g id="node15" class="node">
<title>count_lemma_occurrences_subset</title>
<ellipse fill="none" stroke="#000000" cx="368" cy="-412" rx="143.5036" ry="18"/>
<text text-anchor="middle" x="368" y="-407.8" font-family="Times,serif" font-size="14.00" fill="#000000">count_lemma_occurrences_subset</text>
</g>
<!-- count_lemma_occurrences_subset&#45;&gt;lemma_occurrences_subset -->
<g id="edge21" class="edge">
<title>count_lemma_occurrences_subset-&gt;lemma_occurrences_subset</title>
<path fill="none" stroke="#000000" d="M365.3064,-393.6006C363.5166,-381.375 361.1324,-365.0887 359.1079,-351.2599"/>
<polygon fill="#000000" stroke="#000000" points="362.5574,-350.6595 357.6457,-341.272 355.6312,-351.6736 362.5574,-350.6595"/>
</g>
<!-- count_form_occurrences_subset -->
<g id="node16" class="node">
<title>count_form_occurrences_subset</title>
<ellipse fill="none" stroke="#000000" cx="768" cy="-412" rx="135.9812" ry="18"/>
<text text-anchor="middle" x="768" y="-407.8" font-family="Times,serif" font-size="14.00" fill="#000000">count_form_occurrences_subset</text>
</g>
<!-- count_form_occurrences_subset&#45;&gt;form_occurrences_subset -->
<g id="edge22" class="edge">
<title>count_form_occurrences_subset-&gt;form_occurrences_subset</title>
<path fill="none" stroke="#000000" d="M768,-393.6006C768,-381.4949 768,-365.4076 768,-351.6674"/>
<polygon fill="#000000" stroke="#000000" points="771.5001,-351.272 768,-341.272 764.5001,-351.2721 771.5001,-351.272"/>
</g>
</g>
</svg>